G04 ================== begin FILE IDENTIFICATION RECORD ==================*
G04 Layout Name:  C:/Users/user/Desktop/work/¾îÄ¡/allegro/CADCAD.brd*
G04 Film Name:    Design*
G04 File Format:  Gerber RS274X*
G04 File Origin:  Cadence Allegro 17.2-P019*
G04 Origin Date:  Tue Jul 30 16:47:21 2019*
G04 *
G04 Layer:  VIA CLASS/BOTTOM*
G04 Layer:  VIA CLASS/TOP*
G04 Layer:  ROUTE KEEPOUT/ALL*
G04 Layer:  ROUTE KEEPIN/ALL*
G04 Layer:  REF DES/SILKSCREEN_TOP*
G04 Layer:  REF DES/SILKSCREEN_BOTTOM*
G04 Layer:  PIN/BOTTOM*
G04 Layer:  PIN/TOP*
G04 Layer:  PACKAGE KEEPIN/ALL*
G04 Layer:  PACKAGE GEOMETRY/PIN_NUMBER*
G04 Layer:  PACKAGE GEOMETRY/SILKSCREEN_TOP*
G04 Layer:  PACKAGE GEOMETRY/SILKSCREEN_BOTTOM*
G04 Layer:  PACKAGE GEOMETRY/SOLDERMASK_TOP*
G04 Layer:  PACKAGE GEOMETRY/SOLDERMASK_BOTTOM*
G04 Layer:  PACKAGE GEOMETRY/PASTEMASK_TOP*
G04 Layer:  PACKAGE GEOMETRY/PASTEMASK_BOTTOM*
G04 Layer:  ETCH/BOTTOM*
G04 Layer:  ETCH/TOP*
G04 Layer:  BOARD GEOMETRY/OUTLINE*
G04 Layer:  BOARD GEOMETRY/SILKSCREEN_TOP*
G04 Layer:  BOARD GEOMETRY/SILKSCREEN_BOTTOM*
G04 Layer:  BOARD GEOMETRY/SOLDERMASK_TOP*
G04 Layer:  BOARD GEOMETRY/SOLDERMASK_BOTTOM*
G04 Layer:  BOARD GEOMETRY/DESIGN_OUTLINE*
G04 *
G04 Offset:    (0.000 0.000)*
G04 Mirror:    No*
G04 Mode:      Positive*
G04 Rotation:  0*
G04 FullContactRelief:  No*
G04 UndefLineWidth:     0.000*
G04 ================== end FILE IDENTIFICATION RECORD ====================*
%FSLAX25Y25*MOMM*%
%IR0*IPPOS*OFA0.00000B0.00000*MIA0B0*SFA1.00000B1.00000*%
%ADD11C,1.524*%
%ADD13C,1.651*%
%ADD12R,1.524X1.524*%
%ADD14O,1.524X1.016*%
%ADD15R,1.524X1.016*%
%ADD10C,.635*%
%ADD16C,1.*%
%ADD17C,.203*%
%ADD18C,.5*%
%ADD22C,2.402*%
%ADD19C,2.274*%
%ADD21C,2.528*%
%ADD20C,2.656*%
G75*
%LPD*%
G75*
G36*
G01X754200Y500000D02*
Y754200D01*
X508000D01*
Y6245800D01*
X754200D01*
Y6540500D01*
X9245800D01*
Y6245800D01*
X9500000D01*
Y754200D01*
X9245800D01*
Y500000D01*
X754200D01*
G37*
%LPC*%
G75*
G36*
G01X1596300Y5233800D02*
Y5386200D01*
G02X1633800Y5423700I37500J0D01*
G01X1786200D01*
G02X1823700Y5386200I0J-37500D01*
G01Y5233800D01*
G02X1786200Y5196300I-37500J0D01*
G01X1633800D01*
G02X1596300Y5233800I0J37500D01*
G37*
G36*
G01X4463000Y5272400D02*
X4461400Y5272200D01*
X4316300Y5127100D01*
X4316100Y5125500D01*
G02X4090800Y5220600I-125115J18019D01*
G01Y5627800D01*
G02X4291200I100200J87200D01*
G01Y5410000D01*
G03X4308600Y5402800I10198J20D01*
G01X4319700Y5413900D01*
X4319900Y5415500D01*
G02X4463000Y5272400I125100J-18000D01*
G37*
G36*
G01X9256400Y2353800D02*
G02X9206200Y2303600I-50200J0D01*
G01X9053800D01*
G02X9003600Y2353800I0J50200D01*
G01Y2506200D01*
G02X9050100Y2556300I50239J0D01*
G03X9054800Y2561300I-386J5072D01*
G01Y2887100D01*
X9074400Y2906800D01*
X9070800Y2910400D01*
G02X9235200Y2898400I89178J89594D01*
G01Y2854900D01*
X9205200Y2824900D01*
Y2561300D01*
G03X9209900Y2556300I5086J72D01*
G02X9256400Y2506200I-3739J-50100D01*
G01Y2353800D01*
G37*
G36*
G01X2885500Y3765500D02*
G02Y3858500I-117500J46500D01*
G03X2904500I9500J3796D01*
G02Y3765500I117500J-46500D01*
G03X2885500I-9500J-3796D01*
G37*
G36*
G01X936500Y3863500D02*
G02X843500I-46500J-117500D01*
G03Y3882500I-3796J9500D01*
G02X936500I46500J117500D01*
G03Y3863500I3796J-9500D01*
G37*
G36*
G01X1015300Y2229600D02*
X1015100Y2228000D01*
G02X843500Y2363500I-125099J17980D01*
G03Y2382500I-3796J9500D01*
G02X1012300Y2531800I46484J117518D01*
G03X1029400Y2527100I9891J2529D01*
G01X1761400Y3259100D01*
Y4417800D01*
G03X1748100Y4427500I-10204J-22D01*
G02X1663500Y4665500I-38098J120494D01*
G03Y4684500I-3796J9500D01*
G02Y4919500I46500J117500D01*
G03Y4938500I-3796J9500D01*
G02X1756500I46500J117500D01*
G03Y4919500I3796J-9500D01*
G02X1832300Y4833800I-46509J-117508D01*
G03X1849400Y4829100I9891J2529D01*
G01X2346700Y5326400D01*
X2346900Y5328000D01*
G02X2518500Y5192500I125099J-17980D01*
G03Y5173500I3796J-9500D01*
G02Y4938500I-46500J-117500D01*
G03Y4919500I3796J-9500D01*
G02Y4684500I-46500J-117500D01*
G03Y4665500I3796J-9500D01*
G02X2425500I-46500J-117500D01*
G03Y4684500I-3796J9500D01*
G02Y4919500I46500J117500D01*
G03Y4938500I-3796J9500D01*
G02X2349700Y5024200I46509J117508D01*
G03X2332600Y5028900I-9891J-2529D01*
G01X1961800Y4658100D01*
Y3176100D01*
X1015300Y2229600D01*
G37*
G36*
G01X5128500Y1485500D02*
G02X5035500I-46500J-117500D01*
G03Y1504500I-3796J9500D01*
G02Y1739500I46500J117500D01*
G03Y1758500I-3796J9500D01*
G02Y1993500I46500J117500D01*
G03Y2012500I-3796J9500D01*
G02X5128500I46500J117500D01*
G03Y1993500I3796J-9500D01*
G02X5208400Y1879100I-46462J-117553D01*
G03X5225800Y1872100I10194J212D01*
G01X5258800Y1905100D01*
Y2580900D01*
X5220200Y2619400D01*
X5217700Y2619000D01*
G02X5327000Y2728300I-21700J131000D01*
G01X5326600Y2725800D01*
X5409200Y2643100D01*
Y1842900D01*
X5207000Y1640700D01*
X5207400Y1638200D01*
G02X5128500Y1504500I-125367J-16148D01*
G03Y1485500I3796J-9500D01*
G37*
G36*
G01X4366500D02*
G02X4194900Y1350000I-46501J-117520D01*
G01X4194700Y1351600D01*
X4180200Y1366100D01*
X3445200D01*
X3201800Y1609500D01*
Y2728500D01*
X3022000Y2908300D01*
X1751500Y1637800D01*
X967100D01*
G02Y1838200I-77100J100200D01*
G01X1668500D01*
X2740900Y2910600D01*
G03X2736200Y2927700I-7229J7209D01*
G02X2650500Y3003500I31808J122309D01*
G03X2631500I-9500J-3796D01*
G02X2405400Y2985400I-117499J46528D01*
G03X2386400Y2980200I-8790J-5194D01*
G01Y2973800D01*
G02X2336200Y2923600I-50200J0D01*
G01X2183800D01*
G02X2133600Y2973800I0J50200D01*
G01Y3126200D01*
G02X2183800Y3176400I50200J0D01*
G01X2336200D01*
G02X2386400Y3126200I0J-50200D01*
G01Y3119800D01*
G03X2405400Y3114600I10210J-6D01*
G02X2631500Y3096500I108601J-64628D01*
G03X2650500I9500J3796D01*
G02X2885500I117500J-46500D01*
G03X2904500I9500J3796D01*
G02X3147100Y3068000I117508J-46530D01*
G01X3147300Y3066400D01*
X3402200Y2811500D01*
Y1692500D01*
X3528200Y1566500D01*
X4017500D01*
G03X4024700Y1583900I12J10185D01*
G01X3707200Y1901400D01*
X3704700Y1901000D01*
G02X3607800Y2141500I-21724J131018D01*
G01Y2684500D01*
G02X3758200I75200J109500D01*
G01Y2141500D01*
G02X3814000Y2010300I-75215J-109455D01*
G01X3813600Y2007800D01*
X4124100Y1697200D01*
X4218400D01*
G02X4273500Y1739500I101551J-75244D01*
G03Y1758500I-3796J9500D01*
G02X4194600Y1892200I46467J117552D01*
G01X4195000Y1894700D01*
X3988800Y2100900D01*
Y2665100D01*
X4049400Y2725800D01*
X4049000Y2728300D01*
G02X4104800Y2859500I131015J21745D01*
G01Y3131600D01*
X4286900Y3313700D01*
X4653000D01*
G02Y3163300I109500J-75200D01*
G01X4349100D01*
X4255200Y3069400D01*
Y2859500D01*
G02X4158300Y2619000I-75176J-109482D01*
G01X4155800Y2619400D01*
X4139200Y2602900D01*
Y2163100D01*
X4176200Y2126200D01*
G03X4193600Y2133400I7215J7188D01*
G01Y2206200D01*
G02X4243800Y2256400I50200J0D01*
G01X4396200D01*
G02X4446400Y2206200I0J-50200D01*
G01Y2053800D01*
G02X4396200Y2003600I-50200J0D01*
G01X4389800D01*
G03X4384600Y1984600I-6J-10210D01*
G02X4366500Y1758500I-64628J-108601D01*
G03Y1739500I3796J-9500D01*
G02Y1504500I-46500J-117500D01*
G03Y1485500I3796J-9500D01*
G37*
G36*
G01X8058500Y1085500D02*
G02X7965500I-46500J-117500D01*
G03Y1104500I-3796J9500D01*
G02Y1339500I46500J117500D01*
G03Y1358500I-3796J9500D01*
G02X7934900Y1375800I46303J117612D01*
G01X7805500D01*
X7646800Y1534500D01*
Y4322900D01*
X7805600Y4481700D01*
X7987400D01*
G02X8018000Y4499000I76903J-100312D01*
G03Y4518000I-3796J9500D01*
G02X8111000I46500J117500D01*
G03Y4499000I3796J-9500D01*
G02Y4264000I-46500J-117500D01*
G03Y4245000I3796J-9500D01*
G02X8166100Y4202700I-46451J-117544D01*
G01X8223800D01*
X8254800Y4233700D01*
Y4850400D01*
G02X8405200I75200J101600D01*
G01Y4171500D01*
X8286000Y4052300D01*
X8166100D01*
G02X8111000Y4010000I-101551J75244D01*
G03Y3991000I3796J-9500D01*
G02X8018000I-46500J-117500D01*
G03Y4010000I-3796J9500D01*
G02Y4245000I46500J117500D01*
G03Y4264000I-3796J9500D01*
G02X7987400Y4281300I46303J117612D01*
G01X7888600D01*
X7847200Y4239900D01*
Y1617500D01*
X7888500Y1576200D01*
X7934900D01*
X7936300Y1577200D01*
G02X7965500Y1593500I75660J-101233D01*
G03Y1612500I-3796J9500D01*
G02X8058500I46500J117500D01*
G03Y1593500I3796J-9500D01*
G02Y1358500I-46500J-117500D01*
G03Y1339500I3796J-9500D01*
G02Y1104500I-46500J-117500D01*
G03Y1085500I3796J-9500D01*
G37*
G36*
G01X7375300Y951600D02*
X7375100Y950000D01*
G02X7232000Y1093100I-125100J18000D01*
G01X7233600Y1093300D01*
X7244200Y1103900D01*
X7239300Y1108800D01*
X7237600Y1109000D01*
G02X7287800Y1329200I12325J113012D01*
G03X7301400Y1338800I3393J9627D01*
G01Y1345800D01*
G03X7288100Y1355500I-10204J-22D01*
G02X7185400Y1584600I-38018J120526D01*
G03X7180200Y1603600I-5194J8790D01*
G01X7173800D01*
G02X7123600Y1653800I0J50200D01*
G01Y1806200D01*
G02X7173800Y1856400I50200J0D01*
G01X7301400D01*
Y3732900D01*
X7286100Y3748200D01*
X7284500Y3748400D01*
G02X7203400Y3795000I17957J125122D01*
G03X7185200Y3788700I-8011J-6296D01*
G01Y3579500D01*
G02X7034800I-75200J-109500D01*
G01Y5667600D01*
X7284400Y5917200D01*
X7309400D01*
G02X7353300Y5943000I43900J-24449D01*
G01X7505700D01*
G02X7555900Y5892800I0J-50200D01*
G01Y5791200D01*
G02X7545200Y5760200I-50257J0D01*
G02X7533400Y5651500I-90309J-45187D01*
G02X7454900Y5487000I-78500J-63520D01*
G01X7404100D01*
G02X7325600Y5651500I0J100980D01*
G02X7304100Y5701100I78516J63494D01*
G03X7286800Y5706900I-10098J-1420D01*
G01X7185200Y5605400D01*
Y4763600D01*
G03X7200600Y4754800I10203J-19D01*
G02X7226300Y4761900I25700J-42963D01*
G01X7378700D01*
G02X7428900Y4711700I0J-50200D01*
G01Y4559300D01*
G02X7378700Y4509100I-50200J0D01*
G01X7372300D01*
G03X7367100Y4490100I-6J-10210D01*
G02X7203400Y4303000I-64611J-108633D01*
G03X7185200Y4296700I-8011J-6296D01*
G01Y4189800D01*
G03X7204200Y4184700I10187J8D01*
G02Y4070300I98300J-57200D01*
G03X7185200Y4065200I-8813J-5108D01*
G01Y3958300D01*
G03X7203400Y3952000I10189J-4D01*
G02X7427600Y3891500I99083J-78490D01*
G01X7427800Y3889900D01*
X7501800Y3815900D01*
Y1078100D01*
X7375300Y951600D01*
G37*
G54D22*
X4762500Y4254500D03*
X6094000Y3470000D03*
X6430000Y3100000D03*
G54D19*
X890000Y1992000D03*
Y3492000D03*
X2514000Y3812000D03*
X3464000Y4610000D03*
X4180000Y4294000D03*
X6477000Y5588000D03*
X9160000Y3254000D03*
G54D21*
X2260000Y3812000D03*
X3210000Y4610000D03*
X4180000Y4040000D03*
X4699000Y5143500D03*
X6731000Y5588000D03*
X8076000Y5206000D03*
X8330000Y5460000D03*
X9130000Y1439400D03*
G54D20*
X2667000Y2032000D03*
X3683000Y3810000D03*
X3873500Y4762500D03*
X4889500D03*
X5207000Y5715000D03*
X6430000Y2084000D03*
X5842000Y4127500D03*
Y5143500D03*
%LPD*%
G75*
G36*
G01X246000Y246000D02*
Y754000D01*
X754000D01*
Y246000D01*
X246000D01*
G37*
G36*
G01Y6246000D02*
Y6754000D01*
X754000D01*
Y6246000D01*
X246000D01*
G37*
G36*
G01X9246000Y246000D02*
Y754000D01*
X9754000D01*
Y246000D01*
X9246000D01*
G37*
G36*
G01Y6246000D02*
Y6754000D01*
X9754000D01*
Y6246000D01*
X9246000D01*
G37*
G54D10*
X500000Y500000D03*
D03*
Y6500000D03*
D03*
X9500000Y500000D03*
D03*
Y6500000D03*
D03*
G54D11*
X890000Y1738000D03*
D03*
Y1992000D03*
D03*
Y2246000D03*
D03*
Y2500000D03*
D03*
Y3492000D03*
D03*
Y3746000D03*
D03*
Y4000000D03*
D03*
X1710000Y4548000D03*
D03*
Y4802000D03*
D03*
Y5056000D03*
D03*
X2514000Y3050000D03*
D03*
Y3812000D03*
D03*
X2260000D03*
D03*
X2472000Y4548000D03*
D03*
Y4802000D03*
D03*
Y5056000D03*
D03*
Y5310000D03*
D03*
X3022000Y3050000D03*
D03*
X2768000D03*
D03*
X3022000Y3812000D03*
D03*
X2768000D03*
D03*
X3464000Y4610000D03*
D03*
X3210000D03*
D03*
X4180000Y4040000D03*
D03*
Y4294000D03*
D03*
X4191000Y5143500D03*
D03*
X4320000Y1368000D03*
D03*
Y1622000D03*
D03*
Y1876000D03*
D03*
X4445000Y5397500D03*
D03*
X4699000Y5143500D03*
D03*
X5082000Y1368000D03*
D03*
Y1622000D03*
D03*
Y1876000D03*
D03*
Y2130000D03*
D03*
X6477000Y5588000D03*
D03*
X7250000Y968000D03*
D03*
Y1222000D03*
D03*
Y1476000D03*
D03*
X7302500Y3873500D03*
D03*
Y4127500D03*
D03*
Y4381500D03*
D03*
X6731000Y5588000D03*
D03*
X8012000Y968000D03*
D03*
Y1222000D03*
D03*
Y1476000D03*
D03*
Y1730000D03*
D03*
X8064500Y3873500D03*
D03*
Y4127500D03*
D03*
Y4381500D03*
D03*
Y4635500D03*
D03*
X8330000Y4952000D03*
D03*
X8076000Y5206000D03*
D03*
X8330000Y5460000D03*
D03*
X9130000Y1439400D03*
D03*
X9160000Y3254000D03*
D03*
Y3000000D03*
D03*
G54D12*
X1710000Y5310000D03*
D03*
X2260000Y3050000D03*
D03*
X4320000Y2130000D03*
D03*
X7250000Y1730000D03*
D03*
X7302500Y4635500D03*
D03*
X9130000Y2430000D03*
D03*
G54D13*
X2667000Y2032000D03*
D03*
X3683000D03*
D03*
Y2794000D03*
D03*
X4180000Y2750000D03*
D03*
X3683000Y3810000D03*
D03*
X3873500Y4762500D03*
D03*
X4191000Y5715000D03*
D03*
X4762500Y3238500D03*
D03*
Y4254500D03*
D03*
X4889500Y4762500D03*
D03*
X5196000Y2750000D03*
D03*
X5207000Y5715000D03*
D03*
X6430000Y2084000D03*
D03*
X6094000Y3470000D03*
D03*
X6430000Y3100000D03*
D03*
X5842000Y4127500D03*
D03*
Y5143500D03*
D03*
X7110000Y3470000D03*
D03*
G54D14*
X7429500Y5715000D03*
D03*
Y5588000D03*
D03*
G54D15*
Y5842000D03*
D03*
G54D16*
G01X3022000Y3050000D02*
X1710000Y1738000D01*
X890000D01*
G01X2472000Y5310000D02*
X1861600Y4699600D01*
Y3217600D01*
X890000Y2246000D01*
G01X2260000Y3050000D02*
X1710000Y2500000D01*
X890000D01*
G01X5082000Y1876000D02*
X4608500Y2349500D01*
X2960500D01*
X2260000Y3050000D01*
G01X2472000Y5310000D02*
X2833600D01*
X3238600Y5715000D01*
X4191000D01*
G01X4320000Y1368000D02*
X4221700Y1466300D01*
X3486700D01*
X3302000Y1651000D01*
Y2770000D01*
X3022000Y3050000D01*
G01X4191000Y5143500D02*
Y5715000D01*
G01X4445000Y5397500D02*
X4191000Y5143500D01*
G01X7250000Y968000D02*
X4429600D01*
X4320000Y1077600D01*
Y1368000D01*
G01X8012000Y1476000D02*
X7858500D01*
X7366000Y1968500D01*
X6537900D01*
X6445400Y1876000D01*
X5082000D01*
G01X7250000Y968000D02*
X7401600Y1119600D01*
Y3774400D01*
X7302500Y3873500D01*
G01X8012000Y1476000D02*
X7847000D01*
X7747000Y1576000D01*
Y4281400D01*
X7847100Y4381500D01*
X8064500D01*
G54D17*
G01X7241000Y5903500D02*
Y5526500D01*
G01D02*
X7327600Y5468900D01*
G01D02*
X7429500Y5448600D01*
G01D02*
X7531400Y5468900D01*
G01D02*
X7618000Y5526500D01*
G01D02*
X7675600Y5613100D01*
G01D02*
X7695900Y5715000D01*
G01D02*
X7675600Y5816900D01*
G01D02*
X7618000Y5903500D01*
G01D02*
X7531400Y5961100D01*
G01D02*
X7429500Y5981400D01*
G01D02*
X7327600Y5961100D01*
G01D02*
X7241000Y5903500D01*
G01D02*
X7239000Y5901400D01*
G54D18*
G01X890000Y1873200D02*
Y1992000D01*
G01D02*
Y2110800D01*
G01X771200Y1992000D02*
X890000D01*
G01D02*
X1008800D01*
G01X890000Y3373200D02*
Y3492000D01*
G01X2768000Y3050000D02*
Y3201000D01*
X2671200Y3297800D01*
X858700D01*
X854500Y3302000D01*
X685000D01*
X635000Y3352000D01*
Y3950000D01*
X685000Y4000000D01*
X890000D01*
G01Y3492000D02*
Y3610800D01*
G01X771200Y3492000D02*
X890000D01*
G01D02*
X1008800D01*
G01X2260000Y3812000D02*
X1970400D01*
X1904400Y3746000D01*
X890000D01*
G01X1710000Y5191200D02*
Y5310000D01*
G01D02*
Y5428800D01*
G01X1591200Y5310000D02*
X1710000D01*
G01D02*
X1828800D01*
G01X2514000Y3693200D02*
Y3812000D01*
G01D02*
Y3930800D01*
G01X2395200Y3812000D02*
X2514000D01*
G01D02*
X2632800D01*
G01X2472000Y4548000D02*
X3034000D01*
X3096000Y4610000D01*
X3210000D01*
G01X2472000Y4802000D02*
X3713600D01*
X3753100Y4762500D01*
X3873500D01*
G01X2472000Y5056000D02*
Y4802000D01*
G01X2768000Y3812000D02*
Y3926000D01*
X2882000Y4040000D01*
X4180000D01*
G01X3022000Y3812000D02*
X3136000D01*
Y3810000D01*
X3683000D01*
G01X3345200Y4610000D02*
X3464000D01*
G01X4320000Y1622000D02*
X4093000D01*
X3683000Y2032000D01*
G01X4320000Y1876000D02*
X4064000Y2132000D01*
Y2634000D01*
X4180000Y2750000D01*
G01X3683000Y2794000D02*
Y2032000D01*
G01X4061200Y4294000D02*
X4180000D01*
G01X3464000Y4491200D02*
Y4610000D01*
G01D02*
Y4728800D01*
G01Y4610000D02*
X3582800D01*
G01X4180000Y2750000D02*
Y3100500D01*
X4318000Y3238500D01*
X4762500D01*
G01Y4129300D02*
Y4254500D01*
G01D02*
Y4379700D01*
G01X4637300Y4254500D02*
X4762500D01*
G01D02*
X4887700D01*
G01X4180000Y4175200D02*
Y4294000D01*
G01D02*
Y4412800D01*
G01Y4294000D02*
X4298800D01*
G01X4889500Y4762500D02*
X5715100D01*
X5842000Y4635600D01*
Y4127500D01*
G01X7429500Y5588000D02*
X7175500D01*
X6921500Y5334000D01*
X5461000D01*
X5270500Y5143500D01*
X4699000D01*
G01X5082000Y1622000D02*
X5334000Y1874000D01*
Y2612000D01*
X5196000Y2750000D01*
G01X7250000Y1476000D02*
X5228000D01*
X5082000Y1622000D01*
G01X7429500Y5842000D02*
X6032400D01*
X5905400Y5715000D01*
X5207000D01*
G01X6430000Y2084000D02*
X8784000D01*
X9130000Y2430000D01*
G01X6430000Y2974800D02*
Y3100000D01*
G01D02*
Y3225200D01*
G01X6304800Y3100000D02*
X6430000D01*
G01D02*
X6555200D01*
G01X6094000Y3344800D02*
Y3470000D01*
G01D02*
Y3595200D01*
G01X5968800Y3470000D02*
X6094000D01*
G01D02*
X6219200D01*
G01X7302500Y4381500D02*
X6731000D01*
X6477000Y4127500D01*
X5842000D01*
G01X6358200Y5588000D02*
X6477000D01*
G01X8076000Y5206000D02*
X7619000D01*
X7556500Y5143500D01*
X5842000D01*
G01X7131200Y1222000D02*
X7250000D01*
G01X7429500Y5842000D02*
X7315500D01*
X7110000Y5636500D01*
Y3470000D01*
G01X6477000Y5469200D02*
Y5588000D01*
G01D02*
Y5706800D01*
G01Y5588000D02*
X6595800D01*
G01X7429500Y5715000D02*
X7048400D01*
X6921400Y5588000D01*
X6731000D01*
G01X7250000Y1222000D02*
Y1340800D01*
G01X7302500Y4008700D02*
Y4127500D01*
G01D02*
Y4246300D01*
G01Y4127500D02*
X7421300D01*
G01X8012000Y1222000D02*
X8126000D01*
X8205000Y1143000D01*
X8699500D01*
X8995900Y1439400D01*
X9130000D01*
G01X8064500Y4127500D02*
X8254900D01*
X8330000Y4202600D01*
Y4952000D01*
G01Y5460000D02*
X8076000Y5206000D01*
G01X9160000Y3000000D02*
Y2886000D01*
X9130000Y2856000D01*
Y2430000D01*
G01X9160000Y3135200D02*
Y3254000D01*
G01D02*
Y3372800D01*
G01X9041200Y3254000D02*
X9160000D01*
G01D02*
X9278800D01*
M02*
