G04 ================== begin FILE IDENTIFICATION RECORD ==================*
G04 Layout Name:  C:/Users/user/Desktop/work/¾îÄ¡/allegro/CADCAD.brd*
G04 Film Name:    SilkT*
G04 File Format:  Gerber RS274X*
G04 File Origin:  Cadence Allegro 17.2-P019*
G04 Origin Date:  Tue Jul 30 16:47:21 2019*
G04 *
G04 Layer:  REF DES/SILKSCREEN_TOP*
G04 Layer:  PACKAGE GEOMETRY/SILKSCREEN_TOP*
G04 Layer:  BOARD GEOMETRY/SILKSCREEN_TOP*
G04 *
G04 Offset:    (0.000 0.000)*
G04 Mirror:    No*
G04 Mode:      Positive*
G04 Rotation:  0*
G04 FullContactRelief:  No*
G04 UndefLineWidth:     0.200*
G04 ================== end FILE IDENTIFICATION RECORD ====================*
%FSLAX25Y25*MOMM*%
%IR0*IPPOS*OFA0.00000B0.00000*MIA0B0*SFA1.00000B1.00000*%
%ADD10C,.203*%
%ADD11C,.2*%
G75*
%LPD*%
G75*
G54D10*
G01X7241000Y5903500D02*
Y5526500D01*
G01D02*
X7327600Y5468900D01*
G01D02*
X7429500Y5448600D01*
G01D02*
X7531400Y5468900D01*
G01D02*
X7618000Y5526500D01*
G01D02*
X7675600Y5613100D01*
G01D02*
X7695900Y5715000D01*
G01D02*
X7675600Y5816900D01*
G01D02*
X7618000Y5903500D01*
G01D02*
X7531400Y5961100D01*
G01D02*
X7429500Y5981400D01*
G01D02*
X7327600Y5961100D01*
G01D02*
X7241000Y5903500D01*
G01D02*
X7239000Y5901400D01*
G54D11*
G01X763000Y2627000D02*
X1017000D01*
Y1611000D01*
X763000D01*
Y2627000D01*
G01Y4127000D02*
X1017000D01*
Y3365000D01*
X763000D01*
Y4127000D01*
G01X792100Y2755900D02*
X800100Y2743200D01*
X809800Y2734700D01*
X821000Y2730500D01*
X833900Y2734700D01*
X843600Y2743200D01*
X853200Y2755900D01*
X856400Y2772800D01*
Y2857500D01*
G01X953700Y2730500D02*
Y2857500D01*
X934400Y2832100D01*
G01Y2730500D02*
X973000D01*
G01X792100Y4216400D02*
X800100Y4203700D01*
X809800Y4195200D01*
X821000Y4191000D01*
X833900Y4195200D01*
X843600Y4203700D01*
X853200Y4216400D01*
X856400Y4233300D01*
Y4318000D01*
G01X923200Y4296800D02*
X932800Y4309500D01*
X944100Y4315900D01*
X957000Y4318000D01*
X973100Y4313800D01*
X984300Y4303200D01*
X987500Y4290500D01*
X985900Y4277800D01*
X979500Y4267200D01*
X947300Y4246000D01*
X932800Y4231200D01*
X923200Y4210000D01*
X920000Y4191000D01*
X987500D01*
G01X1811600Y5437000D02*
X1964000D01*
X2027500Y5373500D01*
X2154500D01*
X2218000Y5437000D01*
X2370400D01*
Y4421000D01*
X1811600D01*
Y5437000D01*
G01X1804900Y5651500D02*
Y5560500D01*
X1811300Y5541400D01*
X1824200Y5528700D01*
X1840200Y5524500D01*
X1856300Y5528700D01*
X1869200Y5541400D01*
X1875600Y5560500D01*
Y5651500D01*
G01X1969700Y5524500D02*
Y5651500D01*
X1950400Y5626100D01*
G01Y5524500D02*
X1989000D01*
G01X2133000Y3151600D02*
Y3304000D01*
X2196500Y3367500D01*
Y3494500D01*
X2133000Y3558000D01*
Y3710400D01*
X3149000D01*
Y3151600D01*
X2133000D01*
G01X2185900Y4064000D02*
Y3973000D01*
X2192300Y3953900D01*
X2205200Y3941200D01*
X2221200Y3937000D01*
X2237300Y3941200D01*
X2250200Y3953900D01*
X2256600Y3973000D01*
Y4064000D01*
G01X2315400Y3962400D02*
X2325000Y3947600D01*
X2337900Y3939100D01*
X2352400Y3937000D01*
X2365200Y3939100D01*
X2378100Y3949700D01*
X2386100Y3962400D01*
X2387700Y3975100D01*
X2384500Y3989900D01*
X2373300Y4000500D01*
X2362000Y4004700D01*
X2347500D01*
G01X2362000D02*
X2371700Y4011100D01*
X2379700Y4021700D01*
X2382900Y4034400D01*
X2379700Y4047100D01*
X2371700Y4057600D01*
X2357200Y4064000D01*
X2342700Y4061900D01*
X2328200Y4053400D01*
G01X2854600Y2236500D02*
Y2363500D01*
X2894800D01*
X2907700Y2357100D01*
X2915700Y2348700D01*
X2918900Y2331700D01*
X2915700Y2314800D01*
X2906100Y2304200D01*
X2894800Y2297900D01*
X2854600D01*
G01X2894800D02*
X2918900Y2236500D01*
G01X2980900Y2255500D02*
X2990500Y2245000D01*
X3001800Y2238600D01*
X3016200Y2236500D01*
X3030700Y2240700D01*
X3042000Y2249200D01*
X3050000Y2264000D01*
X3051600Y2280900D01*
X3048400Y2297900D01*
X3040400Y2308500D01*
X3029100Y2316900D01*
X3017900Y2319000D01*
X3006600Y2316900D01*
X2992100Y2308500D01*
X2996900Y2363500D01*
X3040400D01*
G01X2819400Y2159000D02*
X3530600D01*
Y1905000D01*
X2819400D01*
Y2159000D01*
G01X3591000Y4610000D02*
G03I-254000J0D01*
G01X3272600Y5069400D02*
X3263000Y5075800D01*
X3251700Y5080000D01*
X3238900D01*
X3224400Y5073600D01*
X3213100Y5063100D01*
X3205100Y5050400D01*
X3198600Y5029200D01*
X3197000Y5010100D01*
X3200300Y4991100D01*
X3205100Y4978400D01*
X3214700Y4965700D01*
X3226000Y4957200D01*
X3237200Y4953000D01*
X3248500D01*
X3259800Y4957200D01*
X3269400Y4963600D01*
X3277500Y4972000D01*
G01X3336200Y5058800D02*
X3345800Y5071500D01*
X3357100Y5077900D01*
X3370000Y5080000D01*
X3386100Y5075800D01*
X3397300Y5065200D01*
X3400500Y5052500D01*
X3398900Y5039800D01*
X3392500Y5029200D01*
X3360300Y5008000D01*
X3345800Y4993200D01*
X3336200Y4972000D01*
X3333000Y4953000D01*
X3400500D01*
G01X3810000Y3657600D02*
Y2946400D01*
X3556000D01*
Y3657600D01*
X3810000D01*
G01X4434000Y4167000D02*
G03I-254000J0D01*
G01X3583100Y3450000D02*
Y3577000D01*
X3623300D01*
X3636200Y3570600D01*
X3644200Y3562200D01*
X3647400Y3545200D01*
X3644200Y3528300D01*
X3634600Y3517700D01*
X3623300Y3511400D01*
X3583100D01*
G01X3623300D02*
X3647400Y3450000D01*
G01X3741500D02*
X3744700Y3477500D01*
X3749600Y3500800D01*
X3756000Y3522000D01*
X3764100Y3545200D01*
X3776900Y3577000D01*
X3712600D01*
G01X4098100Y4561400D02*
X4088500Y4567800D01*
X4077200Y4572000D01*
X4064400D01*
X4049900Y4565600D01*
X4038600Y4555100D01*
X4030600Y4542400D01*
X4024100Y4521200D01*
X4022500Y4502100D01*
X4025800Y4483100D01*
X4030600Y4470400D01*
X4040200Y4457700D01*
X4051500Y4449200D01*
X4062700Y4445000D01*
X4074000D01*
X4085300Y4449200D01*
X4094900Y4455600D01*
X4103000Y4464000D01*
G01X4156900Y4470400D02*
X4166500Y4455600D01*
X4179400Y4447100D01*
X4193900Y4445000D01*
X4206700Y4447100D01*
X4219600Y4457700D01*
X4227600Y4470400D01*
X4229200Y4483100D01*
X4226000Y4497900D01*
X4214800Y4508500D01*
X4203500Y4512700D01*
X4189000D01*
G01X4203500D02*
X4213200Y4519100D01*
X4221200Y4529700D01*
X4224400Y4542400D01*
X4221200Y4555100D01*
X4213200Y4565600D01*
X4198700Y4572000D01*
X4184200Y4569900D01*
X4169700Y4561400D01*
G01X3763100Y4710000D02*
Y4837000D01*
X3803300D01*
X3816200Y4830600D01*
X3824200Y4822200D01*
X3827400Y4805200D01*
X3824200Y4788300D01*
X3814600Y4777700D01*
X3803300Y4771400D01*
X3763100D01*
G01X3803300D02*
X3827400Y4710000D01*
G01X3889400Y4735400D02*
X3899000Y4720600D01*
X3911900Y4712100D01*
X3926400Y4710000D01*
X3939200Y4712100D01*
X3952100Y4722700D01*
X3960100Y4735400D01*
X3961700Y4748100D01*
X3958500Y4762900D01*
X3947300Y4773500D01*
X3936000Y4777700D01*
X3921500D01*
G01X3936000D02*
X3945700Y4784100D01*
X3953700Y4794700D01*
X3956900Y4807400D01*
X3953700Y4820100D01*
X3945700Y4830600D01*
X3931200Y4837000D01*
X3916700Y4834900D01*
X3902200Y4826400D01*
G01X4025900Y4889500D02*
X4737100D01*
Y4635500D01*
X4025900D01*
Y4889500D01*
G01X4127500Y5524500D02*
X4762500D01*
Y5016500D01*
X4127500D01*
Y5524500D01*
G01X4421600Y2257000D02*
X4574000D01*
X4637500Y2193500D01*
X4764500D01*
X4828000Y2257000D01*
X4980400D01*
Y1241000D01*
X4421600D01*
Y2257000D01*
G01X4408400Y2476500D02*
Y2385500D01*
X4414800Y2366400D01*
X4427700Y2353700D01*
X4443700Y2349500D01*
X4459800Y2353700D01*
X4472700Y2366400D01*
X4479100Y2385500D01*
Y2476500D01*
G01X4592600Y2349500D02*
Y2476500D01*
X4533000Y2385500D01*
X4613500D01*
G01X4348100Y2921000D02*
Y3048000D01*
X4388300D01*
X4401200Y3041600D01*
X4409200Y3033200D01*
X4412400Y3016200D01*
X4409200Y2999300D01*
X4399600Y2988700D01*
X4388300Y2982400D01*
X4348100D01*
G01X4388300D02*
X4412400Y2921000D01*
G01X4479200Y2973900D02*
X4490400Y2988700D01*
X4500100Y2997200D01*
X4513000Y3001400D01*
X4524200Y2997200D01*
X4532300Y2988700D01*
X4538700Y2976000D01*
X4540300Y2961200D01*
X4538700Y2948500D01*
X4532300Y2935800D01*
X4522600Y2925200D01*
X4511400Y2921000D01*
X4498500Y2925200D01*
X4487200Y2937900D01*
X4480800Y2957000D01*
X4479200Y2978100D01*
X4482400Y3005700D01*
X4487200Y3020500D01*
X4495300Y3035300D01*
X4506500Y3045900D01*
X4517800Y3048000D01*
X4529100Y3043800D01*
X4537100Y3033200D01*
G01X4332400Y2877000D02*
X5043600D01*
Y2623000D01*
X4332400D01*
Y2877000D01*
G01X4663100Y3850000D02*
Y3977000D01*
X4703300D01*
X4716200Y3970600D01*
X4724200Y3962200D01*
X4727400Y3945200D01*
X4724200Y3928300D01*
X4714600Y3917700D01*
X4703300Y3911400D01*
X4663100D01*
G01X4703300D02*
X4727400Y3850000D01*
G01X4824700D02*
X4836000Y3852100D01*
X4848900Y3858500D01*
X4856900Y3869000D01*
X4860100Y3883900D01*
X4856900Y3898700D01*
X4847300Y3911400D01*
X4832800Y3917700D01*
X4816700D01*
X4807100Y3922000D01*
X4799000Y3932500D01*
X4795800Y3947400D01*
X4800600Y3962200D01*
X4811900Y3972800D01*
X4824700Y3977000D01*
X4837600Y3972800D01*
X4848900Y3962200D01*
X4853700Y3947400D01*
X4850500Y3932500D01*
X4842400Y3922000D01*
X4832800Y3917700D01*
X4816700D01*
X4802200Y3911400D01*
X4792600Y3898700D01*
X4789400Y3883900D01*
X4792600Y3869000D01*
X4800600Y3858500D01*
X4813500Y3852100D01*
X4824700Y3850000D01*
G01X4635500Y3390900D02*
Y4102100D01*
X4889500D01*
Y3390900D01*
X4635500D01*
G01X4343400Y5842000D02*
X5054600D01*
Y5588000D01*
X4343400D01*
Y5842000D01*
G01X4390200Y5227000D02*
X4430400Y5100000D01*
X4470700Y5227000D01*
G01X4527800Y5100000D02*
Y5227000D01*
X4568000D01*
X4580900Y5220600D01*
X4588900Y5212200D01*
X4592100Y5195200D01*
X4588900Y5178300D01*
X4579300Y5167700D01*
X4568000Y5161400D01*
X4527800D01*
G01X4568000D02*
X4592100Y5100000D01*
G01X4689400D02*
Y5227000D01*
X4670100Y5201600D01*
G01Y5100000D02*
X4708700D01*
G01X4353100Y5910000D02*
Y6037000D01*
X4393300D01*
X4406200Y6030600D01*
X4414200Y6022200D01*
X4417400Y6005200D01*
X4414200Y5988300D01*
X4404600Y5977700D01*
X4393300Y5971400D01*
X4353100D01*
G01X4393300D02*
X4417400Y5910000D01*
G01X4484200Y6015800D02*
X4493800Y6028500D01*
X4505100Y6034900D01*
X4518000Y6037000D01*
X4534100Y6032800D01*
X4545300Y6022200D01*
X4548500Y6009500D01*
X4546900Y5996800D01*
X4540500Y5986200D01*
X4508300Y5965000D01*
X4493800Y5950200D01*
X4484200Y5929000D01*
X4481000Y5910000D01*
X4548500D01*
G01X6557000Y2947600D02*
Y2236400D01*
X6303000D01*
Y2947600D01*
X6557000D01*
G01X6957600Y3343000D02*
X6246400D01*
Y3597000D01*
X6957600D01*
Y3343000D01*
G01X6333100Y2760000D02*
Y2887000D01*
X6373300D01*
X6386200Y2880600D01*
X6394200Y2872200D01*
X6397400Y2855200D01*
X6394200Y2838300D01*
X6384600Y2827700D01*
X6373300Y2821400D01*
X6333100D01*
G01X6373300D02*
X6397400Y2760000D01*
G01X6467400Y2774800D02*
X6478700Y2764200D01*
X6491500Y2760000D01*
X6504400Y2764200D01*
X6515700Y2776900D01*
X6523700Y2796000D01*
X6526900Y2815000D01*
Y2838300D01*
X6523700Y2857400D01*
X6515700Y2874300D01*
X6506000Y2882800D01*
X6494700Y2887000D01*
X6481900Y2882800D01*
X6472200Y2874300D01*
X6465800Y2861600D01*
X6462600Y2844700D01*
X6465800Y2829900D01*
X6473800Y2815000D01*
X6483500Y2806600D01*
X6494700Y2804400D01*
X6507600Y2808700D01*
X6517300Y2819300D01*
X6526900Y2838300D01*
G01X6253100Y3683000D02*
Y3810000D01*
X6293300D01*
X6306200Y3803600D01*
X6314200Y3795200D01*
X6317400Y3778200D01*
X6314200Y3761300D01*
X6304600Y3750700D01*
X6293300Y3744400D01*
X6253100D01*
G01X6293300D02*
X6317400Y3683000D01*
G01X6434100D02*
Y3810000D01*
X6374500Y3719000D01*
X6455000D01*
G01X5715000Y4279900D02*
Y4991100D01*
X5969000D01*
Y4279900D01*
X5715000D01*
G01X6858000Y5588000D02*
G03I-254000J0D01*
G01X5745100Y5334000D02*
Y5461000D01*
X5785300D01*
X5798200Y5454600D01*
X5806200Y5446200D01*
X5809400Y5429200D01*
X5806200Y5412300D01*
X5796600Y5401700D01*
X5785300Y5395400D01*
X5745100D01*
G01X5785300D02*
X5809400Y5334000D01*
G01X5906700D02*
Y5461000D01*
X5887400Y5435600D01*
G01Y5334000D02*
X5926000D01*
G01X6574600Y6021900D02*
X6565000Y6028300D01*
X6553700Y6032500D01*
X6540900D01*
X6526400Y6026100D01*
X6515100Y6015600D01*
X6507100Y6002900D01*
X6500600Y5981700D01*
X6499000Y5962600D01*
X6502300Y5943600D01*
X6507100Y5930900D01*
X6516700Y5918200D01*
X6528000Y5909700D01*
X6539200Y5905500D01*
X6550500D01*
X6561800Y5909700D01*
X6571400Y5916100D01*
X6579500Y5924500D01*
G01X6668700Y5905500D02*
Y6032500D01*
X6649400Y6007100D01*
G01Y5905500D02*
X6688000D01*
G01X7351600Y1857000D02*
X7504000D01*
X7567500Y1793500D01*
X7694500D01*
X7758000Y1857000D01*
X7910400D01*
Y841000D01*
X7351600D01*
Y1857000D01*
G01X7329400Y2032000D02*
Y1941000D01*
X7335800Y1921900D01*
X7348700Y1909200D01*
X7364700Y1905000D01*
X7380800Y1909200D01*
X7393700Y1921900D01*
X7400100Y1941000D01*
Y2032000D01*
G01X7458900Y1924000D02*
X7468500Y1913500D01*
X7479800Y1907100D01*
X7494200Y1905000D01*
X7508700Y1909200D01*
X7520000Y1917700D01*
X7528000Y1932500D01*
X7529600Y1949400D01*
X7526400Y1966400D01*
X7518400Y1977000D01*
X7507100Y1985400D01*
X7495900Y1987500D01*
X7484600Y1985400D01*
X7470100Y1977000D01*
X7474900Y2032000D01*
X7518400D01*
G01X7404100Y4762500D02*
X7556500D01*
X7620000Y4699000D01*
X7747000D01*
X7810500Y4762500D01*
X7962900D01*
Y3746500D01*
X7404100D01*
Y4762500D01*
G01X7949000Y4888500D02*
Y5523500D01*
X8457000D01*
Y4888500D01*
X7949000D01*
G01X7392900Y5016500D02*
Y4925500D01*
X7399300Y4906400D01*
X7412200Y4893700D01*
X7428200Y4889500D01*
X7444300Y4893700D01*
X7457200Y4906400D01*
X7463600Y4925500D01*
Y5016500D01*
G01X7527200Y4995300D02*
X7536800Y5008000D01*
X7548100Y5014400D01*
X7561000Y5016500D01*
X7577100Y5012300D01*
X7588300Y5001700D01*
X7591500Y4989000D01*
X7589900Y4976300D01*
X7583500Y4965700D01*
X7551300Y4944500D01*
X7536800Y4929700D01*
X7527200Y4908500D01*
X7524000Y4889500D01*
X7591500D01*
G01X7894700Y5778500D02*
X7934900Y5651500D01*
X7975200Y5778500D01*
G01X8032300Y5651500D02*
Y5778500D01*
X8072500D01*
X8085400Y5772100D01*
X8093400Y5763700D01*
X8096600Y5746700D01*
X8093400Y5729800D01*
X8083800Y5719200D01*
X8072500Y5712900D01*
X8032300D01*
G01X8072500D02*
X8096600Y5651500D01*
G01X8163400Y5757300D02*
X8173000Y5770000D01*
X8184300Y5776400D01*
X8197200Y5778500D01*
X8213300Y5774300D01*
X8224500Y5763700D01*
X8227700Y5751000D01*
X8226100Y5738300D01*
X8219700Y5727700D01*
X8187500Y5706500D01*
X8173000Y5691700D01*
X8163400Y5670500D01*
X8160200Y5651500D01*
X8227700D01*
G01X7350700Y6032500D02*
X7337900Y6034600D01*
X7326600Y6043100D01*
X7317000Y6055800D01*
X7310500Y6070600D01*
X7307300Y6087500D01*
Y6104500D01*
X7310500Y6121400D01*
X7317000Y6136200D01*
X7326600Y6148900D01*
X7337900Y6157400D01*
X7350700Y6159500D01*
X7363600Y6157400D01*
X7374900Y6148900D01*
X7384500Y6136200D01*
X7391000Y6121400D01*
X7394200Y6104500D01*
Y6087500D01*
X7391000Y6070600D01*
X7384500Y6055800D01*
X7374900Y6043100D01*
X7363600Y6034600D01*
X7350700Y6032500D01*
G01X7363600Y6066400D02*
X7382900Y6032500D01*
G01X7480200D02*
Y6159500D01*
X7460900Y6134100D01*
G01Y6032500D02*
X7499500D01*
G01X9257000Y2176000D02*
Y1693400D01*
X9003000D01*
Y2176000D01*
X9257000D01*
G01X9022900Y2410000D02*
Y2537000D01*
X9055000D01*
X9067900Y2530600D01*
X9077600Y2522200D01*
X9085600Y2509500D01*
X9092000Y2494700D01*
X9093600Y2473500D01*
X9092000Y2452300D01*
X9085600Y2437500D01*
X9077600Y2424800D01*
X9067900Y2416300D01*
X9055000Y2410000D01*
X9022900D01*
G01X9187700D02*
Y2537000D01*
X9168400Y2511600D01*
G01Y2410000D02*
X9207000D01*
G01X9257000Y2087100D02*
X9003000D01*
G01X9257000Y2099800D02*
X9003000D01*
G01X9053100Y3445400D02*
X9061100Y3432700D01*
X9070800Y3424200D01*
X9082000Y3420000D01*
X9094900Y3424200D01*
X9104600Y3432700D01*
X9114200Y3445400D01*
X9117400Y3462300D01*
Y3547000D01*
G01X9179400Y3445400D02*
X9189000Y3430600D01*
X9201900Y3422100D01*
X9216400Y3420000D01*
X9229200Y3422100D01*
X9242100Y3432700D01*
X9250100Y3445400D01*
X9251700Y3458100D01*
X9248500Y3472900D01*
X9237300Y3483500D01*
X9226000Y3487700D01*
X9211500D01*
G01X9226000D02*
X9235700Y3494100D01*
X9243700Y3504700D01*
X9246900Y3517400D01*
X9243700Y3530100D01*
X9235700Y3540600D01*
X9221200Y3547000D01*
X9206700Y3544900D01*
X9192200Y3536400D01*
G01X9287000Y2873000D02*
X9033000D01*
Y3381000D01*
X9287000D01*
Y2873000D01*
M02*
